<svg xmlns="http://www.w3.org/2000/svg" viewBox="0 0 304.27 89.69"><defs><style>.a,.c{fill:#fff;}.a{stroke:#db7d74;stroke-width:6px;}.a,.c,.d{stroke-miterlimit:10;}.b,.d{fill:#db7d74;}.c{stroke:#fff;stroke-width:0.5px;}.d{stroke:#db7b74;}</style></defs><rect class="a" x="3" y="3" width="298.27" height="83.69" rx="12"/><path class="b" d="M15,3H222.81a0,0,0,0,1,0,0V86.69a0,0,0,0,1,0,0H15a12,12,0,0,1-12-12V15A12,12,0,0,1,15,3Z"/><path class="c" d="M46.7,28.27h4.51V42.89Q50.84,54.77,44.93,62,39.2,68.65,26.29,72.31l-2.44-3.84Q36.71,64.88,41.7,59q4.69-6.15,5-16.08Zm20.1-9.08V55.74H62.29V23.46H35.79V56H31.28V19.19ZM53.7,56.84a100.54,100.54,0,0,1,20.23,11.7l-2.5,3.83a89.58,89.58,0,0,0-20-12.12Z"/><path class="c" d="M96.1,72.31H91.65V41.06a70.25,70.25,0,0,1-8,17l-1.88-4.81a56,56,0,0,0,9.5-20.41H82.76V28.63h8.89V16.76H96.1V28.63h7.31v4.21H96.1v4q3.84,4.32,8.22,10l-2.61,3.84q-3.72-6.22-5.61-9ZM109,23.4H102V19.19h28.57V22q-2,9-3.59,14h7.92v2.43a46.33,46.33,0,0,1-8.35,21.14,59.13,59.13,0,0,0,11.21,9L135,72.31a58.09,58.09,0,0,1-11.21-9.38,45.42,45.42,0,0,1-13.34,9.5l-2.44-4a44.63,44.63,0,0,0,12.79-9.13,53.47,53.47,0,0,1-8.28-16.39Q110.24,62,101.71,72.13l-3.35-2.92Q108.77,56.78,109,29.3Zm21.57,16.44h-8.77q1.83-5.6,4.2-16.44H113.28v7.12l-.06,1.22a51.42,51.42,0,0,0,10.23,24.31A39.42,39.42,0,0,0,130.52,39.84Z"/><path class="c" d="M153.91,50.87a51.08,51.08,0,0,1-6.45,10.42l-2.93-3.41a46.3,46.3,0,0,0,8.71-16.33l4,.91q-.48,1.59-1.58,4.51h15.23V42.16h4.51V47h20.22v3.9H175.36V57h18v3.78h-18V67h23v4H146.6V67h24.25V60.74H153.91V57h16.94V50.87Zm-1.83-32.23h39.66V40.21H152.08Zm4.33,9h31V22.42h-31Zm31,8.83v-5.3h-31v5.3Z"/><path class="d" d="M272.39,29.63q3.84,5.48,3.84,15.59t-4.08,16.94Q267.7,69,260.45,69q-12.12,0-13.89-11.63h4.93q1.41,7.42,9,7.43,5,0,8-5.06a23.71,23.71,0,0,0,2.86-12.18L271.35,46h-.24a13,13,0,0,1-4.69,5.23,12.58,12.58,0,0,1-6.76,1.89,13.11,13.11,0,0,1-10.11-4.14,14.21,14.21,0,0,1-3.72-10.23A14.42,14.42,0,0,1,250,28.05a13.92,13.92,0,0,1,10.54-4.27Q268.37,23.78,272.39,29.63ZM253.44,31a11,11,0,0,0-2.68,7.74,10,10,0,0,0,2.68,7.37,9.39,9.39,0,0,0,7.19,2.86A9.7,9.7,0,0,0,267.76,46a10.44,10.44,0,0,0,2.8-7.44,10.78,10.78,0,0,0-2.68-7.49A9.2,9.2,0,0,0,260.63,28,9.32,9.32,0,0,0,253.44,31Z"/></svg>
