<svg xmlns="http://www.w3.org/2000/svg" viewBox="0 0 301.27 86.69"><defs><style>.a,.c{fill:#fff;}.a,.b{stroke:#de95aa;stroke-miterlimit:10;}.a{stroke-width:3px;}.b,.d{fill:#de95aa;}</style></defs><rect class="a" x="1.5" y="1.5" width="298.27" height="83.69" rx="12"/><path class="b" d="M13.5,1.5H221.31a0,0,0,0,1,0,0V85.19a0,0,0,0,1,0,0H13.5a12,12,0,0,1-12-12V13.5A12,12,0,0,1,13.5,1.5Z"/><path class="c" d="M34.48,43.22H28.69V33h37.4V43.22H60.61l-2.68,5H74.26V51H36.18c-.32,1.51-.73,3.15-1.22,4.94H46.11q-.18,10.47-2,12.61c-1.38,1.38-3.68,2.07-6.88,2.07-.45,0-1.4,0-2.87-.12l-.79-2.8,3,.24q4.08-.12,5.17-1.58t1.22-7.56H34a23.78,23.78,0,0,1-1.89,4A29.1,29.1,0,0,1,23,71.12L21,68.62a26.38,26.38,0,0,0,8.29-7.19c.48-.85.95-1.72,1.4-2.62H22.47V56H31.8c.48-1.59.91-3.23,1.27-4.94H20.53v-2.8H36.79ZM25.64,26.59H45.81V22.08H22.9v-2.8H45.81v-4H49v4H71.94v2.8H49v4.51H69.26v2.68H25.64ZM63,40.66V35.54H31.8v5.12ZM57.2,43.22H37.89l2.31,5H54.52ZM70,55.28V70.87h-3V68.44H53.66v2.43h-3V55.28ZM53.66,65.7H66.94V58H53.66Z"/><path class="c" d="M90.89,35.54a114.69,114.69,0,0,1-7.5,26.32L80.53,60a107.86,107.86,0,0,0,7.13-25.16Zm11.39,33.38c-3.86,0-5.79-1.82-5.79-5.48V28.11h3.35v34.6q0,2.92,3.41,2.92h12.06a3.76,3.76,0,0,0,3.54-1.76q1.34-2.38,1.76-13.4l3.11,1q-.56,12.12-2.5,15.11-1.64,2.31-5.24,2.31Zm1.15-53.12A128.54,128.54,0,0,1,116.84,31L114,32.86a110.29,110.29,0,0,0-13.34-15.35Zm22.18,17a175.28,175.28,0,0,1,10.84,24.79l-3,1.34a157,157,0,0,0-11-25Z"/><path class="c" d="M153.69,70.87h-3.17V47.12a57.9,57.9,0,0,1-8,15.59l-1.34-3.35a50.06,50.06,0,0,0,9.38-19h-8.16v-3.1h8.16V15.5h3.17V37.25h8v3.1h-8v2.44a111.36,111.36,0,0,1,8.47,10.42L160.27,56a106.82,106.82,0,0,0-6.58-10.17Zm-9.2-50.38q1.35,5.07,2.62,12.37l-2.37.67q-1.23-6.95-2.68-12.24Zm17.12-.79A57.17,57.17,0,0,1,159.42,33L157,32.25a52.49,52.49,0,0,0,2.13-12.85Zm6.58,20.78q-.36,19.07-6.94,30.64l-2.5-2.26q5.91-10.29,6.27-28.81V20.49H179A37.18,37.18,0,0,0,177,15.74l3.35-.61q.8,1.95,1.89,5.36h13.83v3.05h-27.9V37.61h11.39V32.25H171.3v-2.8h8.16v-4h3.11v4h9.87v8.16h5v2.87h-5v8.34h-9.87v5.42h10.78V71.06h-2.92V68.19H173.49v2.87h-2.92V54.24h8.89V48.82H171.3V46h8.28V40.48Zm5.3,24.85h16.94V57.17H173.49Zm9-33.08v5.36h7.06V32.25Zm0,8.23V46h7.06V40.48Z"/><path class="d" d="M245.72,23.13H273.8v3.11L257.35,66.63h-4.08l16.63-40H245.72Z"/></svg>