<svg xmlns="http://www.w3.org/2000/svg" viewBox="0 0 303.27 88.69"><defs><style>.a,.c{fill:#fff;}.a,.b{stroke:#de95aa;stroke-miterlimit:10;}.a{stroke-width:5px;}.b,.d{fill:#de95aa;}</style></defs><rect class="a" x="2.5" y="2.5" width="298.27" height="83.69" rx="12"/><path class="b" d="M14.5,2.5H222.31a0,0,0,0,1,0,0V86.19a0,0,0,0,1,0,0H14.5a12,12,0,0,1-12-12V14.5A12,12,0,0,1,14.5,2.5Z"/><path class="c" d="M35.17,44.46H29.32V33.74H67.4V44.46H62.22l-2.38,4.33h15.6v3.59H37.49c-.25,1.18-.59,2.6-1,4.26h11q-.19,10.9-2.07,13t-6.95,2.13c-.89,0-2-.06-3.17-.18L34.38,68l3.17.24c2.43,0,4-.45,4.63-1.34s1-2.94,1.09-6.52h-8.1a22,22,0,0,1-1.7,3.47,28,28,0,0,1-9.14,8.41L21.77,69a25.67,25.67,0,0,0,8-6.94c.24-.37.57-.92,1-1.65H23.29V56.64h9a40.38,40.38,0,0,0,1.09-4.26H21.34V48.79H37.12ZM26.28,27.1h20V23.38H23.78V19.85H46.26V16.13h4.32v3.72H73.06v3.53H50.58V27.1h20v3.53H26.28Zm37,14.07V37H33.47v4.2Zm-5.66,3.29H39.74l1.95,4.33H55.21ZM71.23,56v16h-4V69.74h-12v2.32h-4V56Zm-16,10.18h12v-6.7h-12Z"/><path class="c" d="M92.37,36.3a119.67,119.67,0,0,1-7.31,27L81.29,61a115.26,115.26,0,0,0,6.88-25.53Zm11.15,33.75q-6.33,0-6.33-6.16v-35h4.38V63q0,2.75,3.29,2.74h11.45A3.21,3.21,0,0,0,119.42,64Q120.57,61.7,121,51.1l4.15,1.4q-.74,12.55-2.62,15.23a6.41,6.41,0,0,1-5.42,2.32Zm2-53.61A120.78,120.78,0,0,1,118.38,32l-3.65,2.5a112.57,112.57,0,0,0-12.92-15.78ZM127.4,33.56a186,186,0,0,1,10.17,25.28l-4,1.82A176.82,176.82,0,0,0,123.14,35Z"/><path class="c" d="M155.18,72.06H151V49.82a60.14,60.14,0,0,1-7.31,14.07l-1.83-4.57A46.54,46.54,0,0,0,151,41.78h-7.8v-4H151V16.32h4.14v21.5h7.67v4h-7.67V44c2.72,2.85,5.44,6,8.16,9.45l-2.43,3.71c-2-3.65-3.94-6.8-5.73-9.44Zm-9.26-50.75q1.46,5.85,2.5,12.49l-3,.79c-.77-4.46-1.64-8.55-2.62-12.24Zm17-.55a57.59,57.59,0,0,1-2.2,13.34l-3-.91a56.5,56.5,0,0,0,2-12.85Zm6.7,21.14q-.37,18.83-6.64,30.34l-3.35-3q5.6-10.11,5.9-28.2v-20h13.89q-1.09-2.87-1.76-4.27l4.38-.73q.74,1.77,1.71,5h13.46v4H169.68V38.25h10.48V33.74h-7.74V30.08H180V26.61h4v3.47h9.93v8.17h4.51V41.9h-4.51v8.29H184v4.69h10.72v17.3h-3.89V69.56H175.4v2.62h-3.83V54.88H180V50.19h-7.61V46.53h7.74V41.9Zm5.78,24h15.42V58.53H175.4ZM184,33.74v4.51h6.09V33.74Zm0,8.16v4.63h6.09V41.9Z"/><path class="d" d="M271.39,26.81a10.42,10.42,0,0,1,3.53,8,10.06,10.06,0,0,1-1.64,5.85,10.48,10.48,0,0,1-5.18,3.78v.12a10.72,10.72,0,0,1,5.79,3.78,11.17,11.17,0,0,1,2.55,7.31,11.63,11.63,0,0,1-4,9.26q-4.26,3.58-11.69,3.59T249,64.89a11.63,11.63,0,0,1-4-9.26,11.13,11.13,0,0,1,2.56-7.31,10.49,10.49,0,0,1,5.79-3.78v-.12a9.78,9.78,0,0,1-5.18-3.78,10,10,0,0,1-1.65-5.85,10.28,10.28,0,0,1,3.54-8q3.78-3.52,10.66-3.53T271.39,26.81ZM252.63,49.29A7.94,7.94,0,0,0,250,55.63a7.84,7.84,0,0,0,2.68,6.27q2.79,2.51,8.1,2.5t8.16-2.56a8.08,8.08,0,0,0,2.62-6.21,8.26,8.26,0,0,0-2.62-6.34c-1.91-1.74-4.63-2.62-8.16-2.62S254.49,47.55,252.63,49.29Zm.85-19.55A6.71,6.71,0,0,0,251.22,35a7.25,7.25,0,0,0,2,5.36q2.45,2.43,7.5,2.43c3.29,0,5.78-.81,7.49-2.43a7.25,7.25,0,0,0,2-5.36A6.82,6.82,0,0,0,268,29.74a10.39,10.39,0,0,0-7.25-2.38Q256,27.36,253.48,29.74Z"/></svg>
