<svg xmlns="http://www.w3.org/2000/svg" viewBox="0 0 304.27 89.69"><defs><style>.a,.c{fill:#fff;}.a,.d{stroke:#e799b0;}.a,.c,.d{stroke-miterlimit:10;}.a{stroke-width:6px;}.b,.d{fill:#e799b0;}.c{stroke:#fff;stroke-width:0.5px;}</style></defs><rect class="a" x="3" y="3" width="298.27" height="83.69" rx="12"/><path class="b" d="M15,3H222.81a0,0,0,0,1,0,0V86.69a0,0,0,0,1,0,0H15a12,12,0,0,1-12-12V15A12,12,0,0,1,15,3Z"/><path class="c" d="M35.67,45H29.82V34.24H67.9V45H62.72l-2.38,4.33h15.6v3.59H38c-.25,1.18-.59,2.6-1,4.26H48q-.19,10.9-2.07,13T39,72.25c-.89,0-2-.06-3.17-.18l-.91-3.53,3.17.24c2.43,0,4-.45,4.63-1.34s1-2.94,1.09-6.52h-8.1A22,22,0,0,1,34,64.39a28,28,0,0,1-9.14,8.41l-2.56-3.29a25.67,25.67,0,0,0,8-6.94c.24-.37.57-.92,1-1.65H23.79V57.14h9a40.38,40.38,0,0,0,1.09-4.26H21.84V49.29H37.62ZM26.78,27.6h20V23.88H24.28V20.35H46.76V16.63h4.32v3.72H73.56v3.53H51.08V27.6h20v3.53H26.78Zm37,14.07v-4.2H34v4.2ZM58.09,45H40.24l1.95,4.33H55.71ZM71.73,56.53v16h-4V70.24h-12v2.32h-4v-16Zm-16,10.18h12V60h-12Z"/><path class="c" d="M92.87,36.8a119.67,119.67,0,0,1-7.31,27l-3.77-2.37a115.26,115.26,0,0,0,6.88-25.53ZM104,70.55q-6.33,0-6.33-6.16v-35h4.38V63.48q0,2.75,3.29,2.74h11.45a3.21,3.21,0,0,0,3.11-1.77q1.15-2.25,1.58-12.85l4.15,1.4q-.74,12.55-2.62,15.23a6.41,6.41,0,0,1-5.42,2.32Zm2-53.61a120.78,120.78,0,0,1,12.91,15.53L115.23,35a112.57,112.57,0,0,0-12.92-15.78ZM127.9,34.06a186,186,0,0,1,10.17,25.28l-4,1.82a176.82,176.82,0,0,0-10.41-25.7Z"/><path class="c" d="M155.68,72.56h-4.14V50.32a60.14,60.14,0,0,1-7.31,14.07l-1.83-4.57a46.54,46.54,0,0,0,9.14-17.54h-7.8v-4h7.8V16.82h4.14v21.5h7.67v4h-7.67v2.19c2.72,2.85,5.44,6,8.16,9.45l-2.43,3.71c-2-3.65-3.94-6.8-5.73-9.44Zm-9.26-50.75q1.46,5.85,2.5,12.49l-3,.79c-.77-4.46-1.64-8.55-2.62-12.24Zm17-.55a57.59,57.59,0,0,1-2.2,13.34l-3-.91a56.5,56.5,0,0,0,2-12.85Zm6.7,21.14q-.37,18.83-6.64,30.34l-3.35-3q5.6-10.11,5.9-28.2v-20h13.89q-1.09-2.87-1.76-4.27l4.38-.73q.74,1.77,1.71,5h13.46v4H170.18V38.75h10.48V34.24h-7.74V30.58h7.61V27.11h4v3.47h9.93v8.17h4.51V42.4h-4.51v8.29h-9.93v4.69h10.72v17.3h-3.89V70.06H175.9v2.62h-3.83V55.38h8.46V50.69h-7.61V47h7.74V42.4Zm5.78,24h15.42V59H175.9Zm8.59-32.16v4.51h6.09V34.24Zm0,8.16V47h6.09V42.4Z"/><path class="d" d="M250.46,24.63v43.5h-5V30.73a23,23,0,0,1-10.23,6v-5A25.84,25.84,0,0,0,241.32,29a22.9,22.9,0,0,0,5.24-4.39Z"/><path class="d" d="M281.65,27.25a11.89,11.89,0,0,1,3.9,9.2,14.81,14.81,0,0,1-4.27,10.24,59.14,59.14,0,0,1-9,7q-8.28,5.55-9.5,10h22.85v4.45h-29a15.58,15.58,0,0,1,4.32-10.78,54.36,54.36,0,0,1,9.45-7.74,58.09,58.09,0,0,0,6.82-5.42,11.42,11.42,0,0,0,3.35-7.8,7.93,7.93,0,0,0-2.38-6.15,9.41,9.41,0,0,0-6.64-2.19c-3,0-5.34,1-6.88,3-1.75,2-2.64,4.9-2.68,8.71h-5q0-7.24,4.09-11.63a13.74,13.74,0,0,1,10.66-4.39A14.4,14.4,0,0,1,281.65,27.25Z"/></svg>
