<svg xmlns="http://www.w3.org/2000/svg" viewBox="0 0 304.27 89.69"><defs><style>.a,.c{fill:#fff;}.a,.d{stroke:#576690;}.a,.c,.d{stroke-miterlimit:10;}.a{stroke-width:6px;}.b,.d{fill:#576690;}.c{stroke:#fff;stroke-width:0.5px;}</style></defs><rect class="a" x="3" y="3" width="298.27" height="83.69" rx="12"/><path class="b" d="M15,3H222.81a0,0,0,0,1,0,0V86.69a0,0,0,0,1,0,0H15a12,12,0,0,1-12-12V15A12,12,0,0,1,15,3Z"/><path class="c" d="M34.64,16.82q-1,6-2,11.57h9.44v2.44q-.74,14.43-5.55,25,2.92,2.56,4.94,4.57l-2.93,3.41q-2.07-2.13-4-4a43.31,43.31,0,0,1-10.6,12.43l-2.74-3.47A38.63,38.63,0,0,0,31.28,57q-3.53-3.1-8.52-6.94,2.67-8.1,4.75-17.43H21.84v-4.2h6.52q1.16-6.09,2-12Zm3.22,15.77H31.77a128.36,128.36,0,0,1-4.32,16.15c2.47,1.82,4.38,3.29,5.72,4.38A60,60,0,0,0,37.86,32.59ZM49.8,24.31H43.53V20H69.11v2.14q-1.27,8-3.41,16.69h9v1.89q-.43,16.56-1.28,21.87t-2.56,7.31a7.64,7.64,0,0,1-5.6,1.89H59.31L58,67.62c2.92.16,4.89.25,5.91.25,1.86,0,3.18-.45,4-1.34q1.16-1.59,1.58-5.61t.91-18.21h-9.8q2.55-9.57,4-18.4H54.07v10q-.24,25.83-13.28,37.83L37.5,69.27q12.12-11,12.3-35Z"/><path class="c" d="M84.83,32.35a76.85,76.85,0,0,1,10.72,9.2l-3.1,3.11a63.61,63.61,0,0,0-10.73-9.32ZM95.37,50.44a220,220,0,0,1-8.16,21.93l-4.08-1.82a199.13,199.13,0,0,0,8.4-21.63Zm-9-32.53a86.69,86.69,0,0,1,10.84,9L94.15,30.1a67.32,67.32,0,0,0-10.84-9.2Zm27.35,45.33a53.88,53.88,0,0,1-13.89,9.5l-2.56-3.35a55.07,55.07,0,0,0,13.46-8.83Zm-8.35-46.36h4.27v7.06h15.83V16.82h4.27v7.12h5.6v4h-5.6V54.65h7.13v4.14H98.05V54.65h7.37V27.9H98.84v-4h6.58Zm20.1,11H109.69v6.4h15.83ZM109.69,44.35h15.83V38.2H109.69Zm0,10.3h15.83v-6.4H109.69Zm14.43,5.78a93.59,93.59,0,0,1,13.34,9.26l-3,3a74.41,74.41,0,0,0-13.16-9.57Z"/><path class="c" d="M143.56,39.36h5.72V24.8h-6.15v-4h16.33v4h-6V39.36h5.29v4h-5.29V58.91q4.14-1.33,6.09-2.07v4.08a113.33,113.33,0,0,1-16.15,4.69l-1-4.08c2.39-.45,4.71-.93,6.94-1.46V43.38h-5.72Zm15.83-11.21h6.83V16.76h4.14V28.15H176v4.08h-5.6v4.69a111.65,111.65,0,0,1,7.25,10.36L175.17,51q-2.43-5.18-4.81-9.62V72.62h-4.14v-31a67.73,67.73,0,0,1-6.58,15.11L157.75,52a57.06,57.06,0,0,0,8.47-19.37v-.43h-6.83Zm19,0h6.15V16.82h4.15V28.15h8v4.08h-7q3.3,14.63,9.38,24.18l-2.86,3.84A94.25,94.25,0,0,1,188.7,38.5V72.62h-4.15V39q-3.35,14-8.22,22.72l-2.5-4.08q6.27-9.56,9.81-25.4H178.4Z"/><path class="d" d="M249.12,24.63H274.4v4.45H253.2l-1.46,14.56H252a11.19,11.19,0,0,1,4.69-3.29,14.08,14.08,0,0,1,5.55-1,13.51,13.51,0,0,1,10,3.89q3.9,4.09,3.9,11A13.81,13.81,0,0,1,271.47,65a16.94,16.94,0,0,1-20.65.86,12.69,12.69,0,0,1-5-9.45h4.93a8.44,8.44,0,0,0,3.29,6.34,10.83,10.83,0,0,0,6.64,1.95,10.36,10.36,0,0,0,7.56-2.93,10.14,10.14,0,0,0,3-7.49q0-5.11-2.8-8c-1.75-1.91-4.22-2.86-7.43-2.86a11.28,11.28,0,0,0-5.55,1.34,8.29,8.29,0,0,0-3.9,3.9H246.8Z"/></svg>