<svg xmlns="http://www.w3.org/2000/svg" viewBox="0 0 304.27 89.69"><defs><style>.a,.c{fill:#fff;}.a,.d{stroke:#b8a6d9;}.a,.c,.d{stroke-miterlimit:10;}.a{stroke-width:6px;}.b,.d{fill:#b8a6d9;}.c{stroke:#fff;stroke-width:0.5px;}</style></defs><rect class="a" x="3" y="3" width="298.27" height="83.69" rx="12"/><path class="b" d="M15,3H222.81a0,0,0,0,1,0,0V86.69a0,0,0,0,1,0,0H15a12,12,0,0,1-12-12V15A12,12,0,0,1,15,3Z"/><path class="c" d="M24.89,22.66H47a46.36,46.36,0,0,0-2.92-5.72l4.63-.73a48.1,48.1,0,0,1,2.74,6.45H73v4H63.27a51.39,51.39,0,0,1-3.72,9.74H75.76v4.08H22V36.43H37.74a78.78,78.78,0,0,0-3.35-9.74h-9.5Zm43,22.73V72.56H63.45V69.75H34.57v2.81H30.13V45.39ZM34.57,55.74H63.45V49.29H34.57Zm0,10.12H63.45V59.52H34.57ZM39,26.69q1.59,4.2,3.11,9.74H55.29a36,36,0,0,0,3.59-9.74Z"/><path class="c" d="M97.5,51.36a84,84,0,0,1-11,18.58L82.7,67.26a74.09,74.09,0,0,0,11-17.79ZM85.75,44.78Q88.8,30.71,90,21c1.1.16,2.27.28,3.53.37q21.57-.06,35.09-4.33l2.07,3.72q-13.83,4-37.1,4.32-1.21,7.24-3,15.41H108V28.82h4.51V40.51h22.23v4.27H112.55V66.16q0,6.15-5.73,6.15H98.66L97.75,68q4.38.3,7.55.3c1.83,0,2.74-1.07,2.74-3.23V44.78Zm39,4.32a179,179,0,0,1,10.6,19.13l-4.08,2.07A135.48,135.48,0,0,0,120.83,51Z"/><path class="c" d="M144.23,41.12h5.42V25.59h-6.4v-3.9h17.12v3.9h-6.64V41.12h5.48V45h-5.48V60.74c2.48-.89,4.77-1.81,6.88-2.74v4a105.5,105.5,0,0,1-16.75,5.6l-1-3.9c2.92-.61,5.17-1.13,6.76-1.58V45h-5.42Zm22.35-24.43h4v8.84h9.45q0,31-.92,38.31-.67,8-6.33,8l-3.41-.25-1-4q2.19.18,3.9.18c1.74,0,2.78-1.9,3.11-5.72q.48-4.69.67-32.47H170.6v6.76q-.18,24.74-9.5,36.13L158,69.69q8.41-10.41,8.59-33.32V29.61h-4.5V25.53h4.5Zm30.71,6.22V71h-4v-2.8h-5.91v3h-3.9V22.91Zm-9.87,41.42h5.91V26.81h-5.91Z"/><path class="d" d="M275.5,35.42h-4.94q-1.46-7.44-9-7.44-5.19,0-8.05,5.06-2.87,4.64-2.86,12.18,0,.8.06,1.59H251a12.53,12.53,0,0,1,11.45-7.13,13.26,13.26,0,0,1,10.05,4,14.66,14.66,0,0,1,3.78,10.36,14.66,14.66,0,0,1-4.15,10.66A14.3,14.3,0,0,1,261.55,69q-7.86,0-11.94-5.91-3.78-5.48-3.78-15.53,0-10.49,4.08-16.94,4.26-6.81,11.7-6.82Q273.67,23.78,275.5,35.42ZM254.3,46.75a10.16,10.16,0,0,0-2.81,7.43,10.5,10.5,0,0,0,2.69,7.49,9.18,9.18,0,0,0,7.24,3.11,9.35,9.35,0,0,0,7.13-3,11.25,11.25,0,0,0,2.74-7.73,10.18,10.18,0,0,0-2.68-7.37,9.38,9.38,0,0,0-7.19-2.87A9.56,9.56,0,0,0,254.3,46.75Z"/></svg>
