<svg xmlns="http://www.w3.org/2000/svg" viewBox="0 0 304.27 89.69"><defs><style>.a,.c{fill:#fff;}.a,.d{stroke:#9ac8e2;}.a,.c,.d{stroke-miterlimit:10;}.a{stroke-width:6px;}.b,.d{fill:#9ac8e2;}.c{stroke:#fff;stroke-width:0.5px;}</style></defs><rect class="a" x="3" y="3" width="298.27" height="83.69" rx="12"/><path class="b" d="M15,3H222.81a0,0,0,0,1,0,0V86.69a0,0,0,0,1,0,0H15a12,12,0,0,1-12-12V15A12,12,0,0,1,15,3Z"/><path class="c" d="M23.55,71.76l-1-4.14c3,.16,5.14.25,6.4.25,1.46,0,2.19-.88,2.19-2.62V23.58H21.78V19.31H43v4.27H35.67V66.34c0,3.62-1.73,5.42-5.18,5.42ZM58,37.65h4.32V48.49Q62,58.3,57.48,63.91q-4.45,5.3-14.62,8.4L40.48,68.6q9.75-2.8,13.59-7.5,3.59-4.8,3.9-12.61ZM45.11,19.31H75.94v4.27H62.47q-.3,3.6-.79,6.39H73.93V58.85H69.6V34.06H51.14V59H46.88V30H57.24q.48-2.79.79-6.39H45.11ZM65.34,59.22A79.83,79.83,0,0,1,76.43,69.39l-3.17,3.23A78.24,78.24,0,0,0,62.35,62Z"/><path class="c" d="M83.25,24.37V20.11h18.64v4.26H93.66A85.2,85.2,0,0,1,90.44,38.2H101V65.92H91.47v4.63H87.33V45.81a63.48,63.48,0,0,1-3.35,6l-2.32-3.77a65.59,65.59,0,0,0,7.8-23.7ZM91.47,62H97V42.22H91.47Zm44.78-39.54V32.53H132.1V26.44H108.65v4.27l.06-.43,3.9.67-.67,4.14h7.8v3Q118.65,60,105.12,72.31L102.19,69A38.61,38.61,0,0,0,112.67,54.1a36,36,0,0,0-5.24-3.66,37,37,0,0,1-2.37,4.39l-2.75-3.35q4.34-7.12,6-18.7h-3.84V22.42H118a38.91,38.91,0,0,0-2.92-5.3l4.51-.73q1.22,2.43,2.62,6ZM116,39h-4.81q-1.09,4.38-2.38,8A38.48,38.48,0,0,1,114,50.38,57.52,57.52,0,0,0,116,39Zm15.41-.73h-5.3V65.55q0,2.19,1.83,2.19h3a2.29,2.29,0,0,0,2.43-1.58,37.7,37.7,0,0,0,.73-6.94L138,60.43q-.54,7.92-1.7,9.69c-.78,1-2.2,1.52-4.27,1.52h-5.66q-4.27,0-4.27-4.69V34.48h13.16V51.3q0,4.38-4.69,4.56a19.24,19.24,0,0,1-2.68-.18l-1-3.71a17.16,17.16,0,0,0,2.25.24q2.25,0,2.25-2.13Z"/><path class="c" d="M172.92,16.82q0,6.88-.43,13.52,5.12,24.85,26.44,38l-2.86,3.84q-18.7-12.24-25.16-32.9-5.49,19.86-25.83,33l-2.68-3.9q25.1-15.4,25.95-41.79l.12-9.68Z"/><path class="d" d="M271.66,27.31a10.42,10.42,0,0,1,3.53,8,10.06,10.06,0,0,1-1.64,5.85,10.48,10.48,0,0,1-5.18,3.78V45a10.72,10.72,0,0,1,5.79,3.78,11.17,11.17,0,0,1,2.55,7.31,11.63,11.63,0,0,1-4,9.26Q268.43,69,261,69t-11.7-3.59a11.63,11.63,0,0,1-4-9.26,11.13,11.13,0,0,1,2.56-7.31A10.49,10.49,0,0,1,253.63,45v-.12a9.78,9.78,0,0,1-5.18-3.78,10,10,0,0,1-1.65-5.85,10.28,10.28,0,0,1,3.54-8q3.76-3.52,10.66-3.53T271.66,27.31ZM252.9,49.79a7.94,7.94,0,0,0-2.68,6.34,7.84,7.84,0,0,0,2.68,6.27q2.79,2.5,8.1,2.5t8.16-2.56a8.08,8.08,0,0,0,2.62-6.21,8.26,8.26,0,0,0-2.62-6.34c-1.91-1.74-4.63-2.62-8.16-2.62S254.76,48.05,252.9,49.79Zm.85-19.55a6.71,6.71,0,0,0-2.26,5.24,7.25,7.25,0,0,0,2,5.36q2.44,2.43,7.5,2.43c3.29,0,5.78-.81,7.49-2.43a7.25,7.25,0,0,0,2-5.36,6.82,6.82,0,0,0-2.25-5.24A10.39,10.39,0,0,0,261,27.86Q256.31,27.86,253.75,30.24Z"/></svg>
